<mxfile host="app.diagrams.net" modified="2023-06-19T14:30:23.675Z" agent="Mozilla/5.0 (Macintosh; Intel Mac OS X 10_15_7) AppleWebKit/537.36 (KHTML, like Gecko) Chrome/114.0.0.0 Safari/537.36" version="21.3.7" etag="-INrWIEwFHdZCD6RW2R4" type="github">
  <diagram name="Page-1" id="_QefqD-qdd0rArEOn3_N">
    <mxGraphModel>
      <root>
        <mxCell id="0" />
        <mxCell id="1" parent="0" />
      </root>
    </mxGraphModel>
  </diagram>
</mxfile>
